<?xml version="1.0" standalone="no"?>
<!DOCTYPE svg PUBLIC "-//W3C//DTD SVG 20010904//EN"
 "http://www.w3.org/TR/2001/REC-SVG-20010904/DTD/svg10.dtd">
<svg version="1.0" xmlns="http://www.w3.org/2000/svg"
 width="959.000000pt" height="959.000000pt" viewBox="0 0 959.000000 959.000000"
 preserveAspectRatio="xMidYMid meet">
<metadata>
Created by potrace 1.14, written by Peter Selinger 2001-2017
</metadata>
<g transform="translate(0.000000,959.000000) scale(0.100000,-0.100000)"
fill="#000000" stroke="none">
<path d="M4914 9134 c-38 -7 -95 -13 -128 -13 -50 -1 -63 -5 -93 -31 -18 -16
-40 -30 -48 -30 -7 0 -47 -13 -87 -30 l-73 -29 72 6 72 6 -9 -34 c-18 -70 -23
-84 -38 -101 -8 -10 -22 -18 -30 -18 -9 0 -29 -4 -46 -9 -17 -6 -78 -21 -136
-36 -58 -14 -123 -34 -145 -45 -41 -19 -175 -61 -277 -86 -163 -39 -371 -131
-565 -249 -94 -57 -95 -41 -1 22 39 26 88 59 108 73 71 47 85 57 114 75 71 43
336 178 406 206 19 8 63 29 99 47 36 17 72 32 81 32 9 0 20 4 26 9 5 5 41 19
81 30 40 12 75 26 78 31 3 6 17 10 30 10 32 0 85 22 65 27 -9 2 -44 -6 -79
-17 -35 -11 -68 -20 -73 -20 -5 0 -30 -9 -56 -21 -26 -11 -65 -29 -87 -38 -22
-10 -80 -33 -130 -51 -160 -58 -200 -74 -225 -91 -14 -9 -61 -34 -105 -54 -65
-31 -356 -213 -375 -235 -3 -3 -18 -14 -35 -24 -51 -32 -166 -143 -317 -307
-48 -51 -132 -141 -187 -199 -102 -106 -208 -250 -273 -370 -46 -84 -109 -201
-119 -220 -4 -8 -16 -35 -27 -60 -11 -25 -35 -79 -54 -120 -20 -41 -38 -86
-42 -100 -6 -22 -21 -59 -57 -145 -5 -11 -18 -47 -30 -79 -12 -33 -38 -78 -59
-100 -52 -58 -73 -92 -100 -161 -13 -33 -29 -69 -36 -80 -6 -11 -19 -65 -29
-120 -9 -55 -24 -125 -32 -155 -66 -256 -84 -360 -89 -526 -2 -99 -11 -189
-25 -260 -20 -101 -34 -356 -21 -392 7 -21 32 7 32 37 0 14 7 48 15 75 8 27
15 58 15 69 0 16 -3 17 -15 7 -13 -11 -15 -8 -15 21 1 30 42 274 69 404 11 52
34 170 56 290 12 62 23 109 55 220 5 17 16 57 25 90 9 33 32 110 52 170 20 61
39 126 44 145 8 39 75 236 88 260 5 9 12 31 16 50 4 19 14 44 21 55 8 11 14
26 14 35 0 8 11 38 25 65 13 28 25 53 25 57 0 7 33 80 101 224 16 34 29 67 29
73 0 6 5 11 10 11 6 0 10 4 10 10 0 9 39 82 109 205 13 22 32 51 42 65 11 14
45 59 77 100 53 71 113 135 210 224 23 21 42 42 42 47 0 4 8 10 18 13 9 4 51
38 92 77 41 38 86 79 100 90 97 75 171 129 180 129 5 0 10 3 10 8 0 8 8 13 90
55 30 15 62 32 70 37 15 10 102 50 193 89 26 11 65 23 85 26 l37 6 -25 -20
c-14 -11 -50 -32 -80 -48 -61 -30 -232 -132 -240 -142 -3 -4 -25 -15 -49 -26
-24 -11 -61 -31 -81 -46 -20 -15 -47 -30 -61 -34 -13 -4 -38 -17 -55 -29 -34
-23 -124 -103 -124 -111 0 -2 -10 -15 -22 -28 -13 -14 -43 -50 -68 -81 -25
-31 -53 -66 -62 -76 -10 -11 -18 -23 -18 -27 0 -4 -13 -21 -29 -38 -30 -32
-70 -87 -124 -171 -40 -63 -46 -72 -81 -125 -52 -79 -78 -139 -71 -166 3 -13
25 -44 48 -66 74 -72 190 -174 238 -209 67 -48 163 -121 169 -128 6 -7 131
-90 136 -90 2 0 41 -24 87 -54 45 -30 123 -77 172 -104 93 -53 129 -74 155
-92 8 -5 27 -14 43 -20 20 -7 27 -16 27 -35 0 -23 -16 -63 -31 -75 -7 -6 -69
-119 -69 -126 0 -15 19 0 24 19 3 13 19 37 35 54 16 17 35 47 42 67 16 45 40
47 106 8 26 -16 82 -41 123 -57 41 -16 89 -36 105 -46 17 -9 77 -31 135 -49
132 -41 140 -47 109 -90 l-24 -33 -150 6 c-82 4 -166 11 -185 16 -19 6 -98 17
-174 26 -77 8 -142 17 -144 19 -3 4 -6 17 -11 45 -1 3 -7 -3 -14 -13 -15 -21
-30 -20 -162 12 -89 21 -138 36 -205 63 -62 24 -64 42 -14 142 8 16 14 38 14
50 0 18 -3 17 -24 -12 -13 -18 -35 -57 -48 -86 -13 -31 -29 -55 -38 -55 -8 0
-71 29 -140 65 -69 36 -136 70 -150 76 -33 14 -230 138 -256 161 -11 10 -24
18 -28 18 -10 0 -51 34 -135 111 -35 33 -71 59 -81 59 -13 0 -23 -17 -39 -67
-11 -38 -39 -124 -61 -193 -75 -237 -105 -394 -129 -682 -4 -55 -12 -82 -26
-98 -19 -21 -19 -23 -2 -35 18 -13 24 -55 7 -55 -6 0 -15 10 -19 23 -9 22 -9
22 -20 -6 -6 -15 -14 -39 -17 -53 -3 -13 -10 -26 -14 -29 -5 -3 -12 -30 -15
-60 -4 -32 -13 -59 -22 -64 -9 -5 -14 -22 -14 -47 3 -104 -1 -190 -16 -314
-22 -194 -28 -509 -12 -617 8 -49 13 -95 12 -103 -20 -149 -24 -673 -6 -775 9
-52 11 -55 13 -25 2 19 3 42 2 50 -7 71 -9 549 -3 559 14 21 28 5 35 -39 3
-22 10 -40 15 -40 16 0 30 -78 36 -200 3 -69 10 -237 15 -375 6 -137 17 -297
25 -355 7 -58 16 -140 19 -183 3 -43 10 -95 15 -115 20 -79 22 -139 6 -152 -8
-7 -15 -19 -15 -26 0 -8 -11 -31 -23 -52 -13 -20 -32 -68 -42 -106 -23 -84
-53 -122 -108 -137 -23 -6 -60 -16 -82 -22 -65 -19 -115 -13 -205 23 -83 34
-88 34 -235 36 -93 0 -158 5 -172 12 -27 15 -83 16 -83 1 0 -5 4 -7 10 -4 34
21 124 -44 151 -110 7 -16 23 -44 36 -61 44 -59 16 -123 -47 -111 -26 6 -30 4
-30 -16 0 -13 -5 -28 -11 -34 -6 -6 -9 -19 -7 -29 3 -17 6 -16 28 8 21 25 50
38 50 22 0 -3 -11 -20 -25 -39 -30 -38 -59 -49 -79 -30 -7 8 -25 17 -40 21
-14 3 -38 20 -51 38 l-25 31 6 -42 c5 -33 2 -49 -16 -77 -19 -32 -26 -36 -63
-36 -33 0 -48 7 -74 32 -35 34 -44 24 -17 -17 34 -52 -21 -114 -88 -99 -31 6
-85 56 -116 107 -22 37 -38 34 -53 -10 -6 -21 -20 -49 -29 -63 -15 -22 -17
-43 -12 -158 l5 -134 -47 -47 c-25 -26 -48 -56 -50 -68 -3 -11 -10 -30 -17
-41 -15 -23 -6 -44 52 -135 30 -46 31 -53 30 -141 -1 -50 -8 -116 -16 -146 -8
-30 -15 -58 -15 -62 0 -14 45 -9 66 7 45 34 58 16 88 -118 9 -37 19 -99 22
-136 6 -57 4 -69 -10 -74 -19 -8 -22 -57 -3 -57 29 0 49 -28 61 -87 11 -51 11
-68 -1 -102 -12 -36 -12 -54 0 -124 l13 -82 69 0 c50 0 70 -4 75 -15 13 -26
29 -82 44 -155 8 -38 19 -81 25 -95 22 -55 11 45 -19 164 -20 82 -26 125 -20
137 8 14 30 19 107 24 122 9 276 56 423 129 58 29 110 51 117 49 6 -2 14 1 18
6 3 6 19 11 34 11 26 0 31 -7 61 -75 31 -72 32 -76 15 -89 -10 -7 -27 -11 -37
-8 -10 2 -18 1 -18 -2 0 -8 39 -81 85 -160 19 -32 35 -62 35 -66 0 -5 15 -14
34 -20 44 -14 88 -59 184 -188 l76 -102 623 0 622 0 -20 48 c-11 26 -26 61
-33 77 -37 79 -60 162 -76 265 -6 35 -17 89 -25 118 -14 57 -11 82 10 82 14 0
45 -91 45 -132 0 -14 9 -60 20 -103 11 -43 20 -88 20 -100 0 -12 8 -33 18 -46
11 -13 22 -35 25 -49 4 -14 22 -50 42 -80 19 -30 35 -60 35 -67 0 -7 10 -13
21 -13 20 0 21 1 5 22 -19 27 -19 28 -61 138 -18 47 -42 130 -55 185 -12 55
-28 121 -36 147 -7 26 -16 80 -20 120 -6 66 -5 72 9 58 9 -8 34 -85 56 -170
70 -273 82 -313 101 -338 11 -14 20 -31 20 -39 0 -23 63 -123 78 -123 9 0 9 6
-3 27 -9 16 -31 55 -50 88 -19 33 -34 69 -35 80 0 11 -11 58 -24 105 -14 47
-30 112 -36 145 -7 33 -20 89 -31 125 -10 37 -21 91 -25 122 -6 55 -6 55 25
66 17 6 38 9 46 6 7 -3 22 -1 33 5 11 6 22 7 24 3 2 -4 20 -21 41 -36 20 -16
37 -36 37 -45 -1 -14 -3 -13 -15 3 -13 18 -15 16 -21 -21 -8 -54 -21 -73 -33
-53 -7 10 -5 20 5 31 25 27 17 55 -20 73 -46 22 -76 21 -76 -2 0 -10 3 -22 7
-25 3 -4 8 -29 9 -56 1 -27 7 -58 13 -68 5 -11 11 -37 13 -59 2 -21 5 -41 8
-44 11 -10 40 -113 40 -141 0 -19 5 -29 15 -29 8 0 15 8 15 18 0 11 9 27 19
36 27 25 43 68 39 107 -3 30 -6 34 -31 32 -16 -1 -27 1 -25 5 24 46 38 89 40
122 1 26 6 40 15 40 13 0 17 -25 14 -90 -1 -19 5 -62 13 -94 8 -33 12 -65 9
-72 -2 -6 6 -19 19 -28 l22 -16 -30 0 c-34 0 -94 -51 -94 -79 0 -9 9 -35 20
-58 10 -24 15 -43 10 -43 -20 0 -9 -36 32 -107 40 -70 69 -92 81 -60 4 9 7 9
18 0 7 -7 32 -13 56 -13 40 0 44 2 49 30 4 16 10 28 14 25 4 -2 5 -16 2 -30
-4 -23 -2 -25 37 -25 37 0 42 3 55 35 8 19 20 35 25 35 18 0 12 30 -6 36 -65
19 -139 78 -184 144 -13 19 -33 42 -44 52 -14 11 -20 29 -21 60 -3 119 -18
204 -46 258 -15 30 -28 61 -28 70 -1 42 -84 135 -112 125 -18 -7 -64 83 -49
98 29 29 231 -169 247 -242 3 -14 15 -48 26 -76 11 -27 24 -88 28 -135 12
-146 86 -255 191 -280 92 -23 136 -17 208 26 35 22 73 44 85 51 11 7 57 47
101 90 126 122 119 118 145 96 12 -10 30 -25 39 -34 9 -9 32 -24 51 -34 19
-10 39 -24 43 -31 4 -8 14 -14 21 -14 7 0 35 -9 62 -19 106 -41 193 -63 291
-72 91 -8 112 -7 180 12 111 29 386 119 398 130 5 5 15 9 22 9 7 0 32 12 56
27 55 36 64 41 144 87 37 21 73 46 79 55 14 19 177 131 192 131 5 0 15 7 22
15 7 8 19 15 28 15 18 0 -56 -88 -75 -89 -14 -1 -18 -21 -5 -21 11 0 91 53
117 77 17 16 89 68 190 137 17 12 39 29 50 39 66 59 105 80 105 57 0 -8 -380
-299 -404 -309 -5 -2 -18 -12 -30 -22 -12 -10 -34 -29 -51 -44 -52 -44 -261
-175 -345 -216 -124 -60 -194 -87 -315 -124 -49 -15 -130 -40 -180 -55 -49
-16 -153 -45 -230 -64 -77 -19 -156 -40 -175 -46 -54 -16 -79 -12 -112 15 -21
18 -41 25 -70 25 -53 0 -46 24 8 28 29 2 46 -3 63 -18 25 -21 75 -26 101 -10
8 5 12 10 10 12 -3 2 -22 12 -42 22 -21 11 -38 23 -38 27 0 11 -59 25 -135 34
-66 8 -95 26 -95 61 0 30 18 40 22 12 5 -37 58 -60 140 -60 60 0 81 -4 120
-26 44 -25 50 -26 90 -14 24 8 58 16 77 20 63 13 43 38 -44 57 -58 12 -235 85
-235 96 0 4 -20 10 -45 13 -25 4 -45 11 -45 16 0 4 -21 18 -46 31 l-47 22 -19
-24 c-36 -46 -72 -104 -70 -113 11 -38 -66 -109 -151 -141 -61 -23 -67 -33
-33 -58 15 -11 32 -30 37 -43 8 -24 11 -24 143 -24 126 0 135 1 141 20 3 11
11 20 16 20 13 0 11 -14 -3 -29 -17 -16 214 -10 287 8 28 7 88 21 135 32 47
11 99 24 115 28 17 5 55 14 85 21 74 15 206 49 255 65 22 7 60 19 85 26 25 7
82 30 127 51 45 21 88 38 96 38 13 0 134 73 164 100 7 5 15 10 19 10 3 0 19
11 36 25 16 14 35 25 42 25 7 0 22 8 34 17 11 10 38 33 59 50 42 36 203 158
243 185 14 9 45 35 70 58 96 90 120 105 120 77 0 -17 -50 -67 -136 -136 -39
-31 -100 -79 -135 -108 -311 -251 -343 -275 -422 -312 -37 -17 -69 -31 -72
-31 -3 0 -24 -12 -48 -27 -23 -15 -62 -30 -87 -34 -25 -4 -83 -20 -130 -37
-83 -29 -133 -44 -335 -97 -172 -45 -168 -43 -96 -44 36 -1 78 3 95 8 17 6 74
19 126 31 109 24 278 76 294 89 6 5 47 22 91 36 44 15 85 31 91 36 6 5 40 23
75 40 115 55 150 74 179 99 15 14 48 39 71 55 23 17 77 57 118 90 42 34 93 71
113 83 20 13 38 26 40 30 5 12 116 92 128 92 24 0 -21 -58 -82 -105 -34 -27
-69 -55 -76 -62 -7 -7 -17 -13 -22 -13 -4 0 -30 -20 -56 -45 -27 -25 -67 -57
-89 -73 -22 -15 -68 -48 -102 -74 -34 -27 -66 -48 -71 -48 -5 0 -35 -18 -67
-41 -51 -35 -110 -66 -190 -98 -81 -33 -97 -43 -87 -53 7 -7 25 -3 59 15 26
14 75 36 108 49 57 22 84 35 200 96 50 26 221 145 240 167 6 6 49 41 96 78 78
60 119 81 119 59 0 -19 -176 -172 -198 -172 -6 0 -16 -9 -21 -19 -6 -10 -41
-39 -78 -63 -86 -57 -289 -178 -297 -178 -4 0 -23 -10 -44 -23 -36 -22 -74
-36 -159 -57 -23 -6 -45 -15 -48 -20 -4 -7 442 -10 1266 -10 700 0 1269 4
1263 8 -5 5 -56 21 -113 36 -57 15 -122 35 -145 45 -22 10 -61 24 -85 32 -25
7 -63 26 -85 41 -23 15 -47 28 -54 28 -22 0 -75 31 -115 66 -20 19 -41 34 -45
34 -5 0 -18 8 -30 17 -42 36 -58 49 -107 86 -27 21 -76 64 -110 95 -59 56 -59
57 -33 60 29 3 58 -17 156 -106 26 -23 50 -42 54 -42 3 0 28 -17 55 -39 64
-50 110 -74 118 -61 3 6 -1 10 -9 10 -9 0 -16 4 -16 8 0 5 -25 26 -57 48 -31
21 -61 43 -67 49 -6 6 -27 22 -46 35 -45 31 -60 46 -60 59 0 6 -7 11 -15 11
-9 0 -18 7 -21 15 -4 8 -12 15 -20 15 -8 0 -14 10 -14 26 0 22 3 24 23 18 12
-4 47 -28 77 -53 88 -74 92 -77 170 -135 41 -31 82 -56 91 -56 9 0 44 -18 79
-41 37 -24 71 -39 84 -36 21 3 21 4 1 11 -59 22 -131 66 -140 85 -5 11 -16 21
-23 21 -13 0 -115 67 -156 103 -80 69 -146 135 -146 145 0 31 46 3 135 -81 45
-41 181 -130 257 -166 37 -18 72 -39 78 -46 6 -8 28 -19 48 -26 20 -6 53 -20
72 -31 19 -11 53 -26 75 -33 22 -7 71 -25 109 -39 38 -14 75 -26 82 -26 7 0
38 -9 69 -21 40 -15 55 -25 55 -40 0 -27 -60 -26 -85 1 -10 11 -28 20 -40 20
-13 0 -39 7 -58 15 -20 8 -49 15 -64 15 -16 0 -37 6 -48 14 -21 14 -123 46
-147 46 -16 0 100 -53 162 -73 57 -19 139 -48 165 -58 11 -4 39 -11 63 -14 23
-4 42 -10 42 -15 0 -4 9 -10 20 -13 11 -3 20 -12 20 -21 0 -13 -5 -13 -52 1
-29 8 -56 17 -60 19 -4 3 -30 7 -57 10 -27 2 -69 13 -93 24 -24 11 -50 20 -58
20 -8 0 -33 9 -55 20 -22 11 -48 19 -57 20 -9 0 -20 5 -23 10 -8 13 -55 13
-55 1 0 -11 105 -61 129 -61 9 0 30 -8 46 -18 36 -22 151 -57 217 -67 26 -3
50 -10 52 -14 3 -4 33 -9 67 -10 47 -2 60 1 56 11 -44 111 -100 245 -106 253
-9 11 -38 93 -51 140 -4 17 -11 39 -15 49 -7 16 -5 18 16 13 154 -36 241 -65
285 -93 78 -51 20 51 -185 331 -25 33 -47 62 -51 65 -3 3 -17 21 -30 40 -13
19 -31 42 -39 51 -9 9 -49 55 -90 102 -66 77 -120 130 -254 248 l-38 34 11 54
c18 95 14 102 -72 121 -133 28 -199 47 -255 71 -24 11 -47 19 -52 19 -8 0 -56
27 -154 87 -29 17 -67 39 -85 49 -38 19 -81 54 -126 102 -34 38 -84 62 -126
62 -35 0 -40 -14 -33 -84 5 -52 4 -56 -15 -56 -13 0 -39 23 -71 61 -28 33 -51
64 -51 67 0 4 11 25 25 47 37 62 118 236 145 316 7 20 19 44 26 54 13 18 16
18 65 -6 40 -18 66 -23 117 -22 76 2 94 13 58 36 -54 35 -76 65 -90 120 -14
53 -13 61 5 114 26 77 71 166 86 171 7 2 14 -18 19 -54 9 -79 72 -198 140
-267 60 -62 178 -127 230 -127 34 0 84 18 84 30 0 9 -36 20 -67 20 -35 0 -80
32 -103 71 -29 53 -29 219 1 219 5 0 9 -6 9 -14 0 -35 120 -162 195 -205 96
-56 253 -105 303 -95 9 1 34 6 55 9 56 9 45 21 -27 29 -165 17 -217 68 -241
239 -3 26 -3 68 1 93 l6 45 27 -24 c74 -69 123 -81 240 -60 104 19 119 34 131
131 5 36 7 70 4 74 -11 18 -37 -10 -64 -68 -33 -72 -50 -80 -97 -40 -58 49
-111 204 -70 207 95 7 129 11 165 20 23 7 42 16 42 20 0 5 9 9 19 9 11 0 23 5
26 10 4 6 22 17 40 24 45 19 207 175 182 176 -10 0 -46 -28 -80 -63 -34 -34
-80 -74 -102 -88 -103 -66 -92 -63 -220 -63 -112 0 -123 2 -167 28 -26 15 -69
47 -95 70 -58 52 -83 66 -118 66 -29 0 -105 -38 -105 -52 0 -4 -7 -8 -15 -8
-15 0 -21 21 -9 33 10 9 82 232 89 274 7 38 10 52 59 218 57 195 100 407 121
592 8 76 20 167 25 203 5 36 14 112 20 169 6 58 12 106 14 109 3 2 35 4 72 5
65 2 68 1 75 -23 4 -14 7 -51 8 -82 1 -32 3 -58 6 -58 2 0 28 18 57 40 71 53
104 68 217 96 111 28 219 31 282 9 64 -23 148 -82 194 -137 22 -26 45 -53 51
-60 25 -31 63 -108 80 -163 25 -83 25 -294 0 -380 -23 -79 -95 -253 -112 -269
-7 -7 -23 -34 -35 -60 -12 -26 -28 -50 -36 -53 -7 -3 -13 -11 -13 -19 0 -12
-22 -43 -57 -80 -7 -7 -13 -16 -13 -21 0 -4 -27 -37 -60 -73 -33 -36 -60 -71
-60 -77 0 -7 -4 -13 -10 -13 -5 0 -10 -6 -10 -12 0 -7 27 15 60 50 33 35 60
66 60 69 0 3 10 17 23 32 12 15 31 40 42 56 11 15 28 35 38 44 9 8 17 20 17
26 0 6 12 26 28 45 27 35 58 93 104 200 84 191 107 347 72 470 -9 30 -18 67
-21 82 -3 15 -11 33 -19 39 -8 6 -14 22 -14 35 0 12 -4 25 -9 28 -5 3 -21 26
-36 51 -26 45 -26 47 -15 123 7 42 21 96 31 120 11 24 22 57 26 74 3 16 14 35
25 41 21 13 36 42 66 132 53 158 68 231 77 365 3 52 11 113 17 137 13 55 5
700 -11 821 -6 45 -15 119 -21 164 -15 122 -28 122 -41 1 -4 -43 -15 -107 -23
-143 -9 -36 -16 -83 -15 -105 0 -40 0 -40 14 -15 8 14 14 41 15 60 0 51 19
112 33 107 18 -5 32 -529 20 -737 -7 -136 -13 -173 -31 -212 -22 -47 -35 -58
-62 -51 -27 7 -57 66 -64 124 -9 87 11 301 44 459 16 79 30 155 30 169 0 23
-1 24 -13 6 -22 -29 -39 -9 -32 35 4 21 7 110 7 197 0 141 -3 168 -27 253 -15
52 -30 111 -35 130 -11 51 -21 72 -42 96 -11 12 -41 84 -67 160 -45 131 -79
216 -102 257 -5 10 -26 48 -46 85 -60 113 -85 156 -103 182 -9 14 -20 32 -23
40 -7 14 -59 91 -92 135 -8 10 -15 23 -15 29 0 5 -15 28 -34 51 -37 45 -62 94
-96 192 -20 57 -63 114 -75 101 -3 -3 5 -22 19 -43 14 -20 28 -53 32 -72 8
-44 -8 -193 -21 -195 -5 0 -24 21 -42 48 -19 27 -42 60 -53 72 -23 27 -23 26
-10 111 5 35 17 72 26 83 16 16 16 21 4 28 -8 6 -24 10 -35 10 -26 0 -34 7
-74 58 -18 24 -36 41 -38 38 -3 -3 7 -17 21 -33 14 -15 26 -31 26 -35 0 -4 10
-16 21 -27 19 -18 21 -26 14 -85 -3 -36 -11 -66 -16 -66 -5 0 -17 13 -27 30
-30 49 -212 230 -321 320 -57 47 -114 94 -126 105 -46 42 -331 225 -351 225
-5 0 -21 10 -36 23 -26 21 -27 25 -21 85 6 63 18 77 43 47 6 -8 21 -17 32 -21
25 -8 128 -78 164 -111 15 -13 43 -35 63 -48 37 -23 153 -108 181 -133 8 -7
44 -35 80 -63 60 -47 82 -67 174 -158 20 -20 39 -30 46 -26 8 5 8 10 2 14 -5
3 -66 61 -135 128 -121 117 -193 178 -280 235 -23 16 -65 48 -93 73 -62 55
-115 91 -145 100 -13 4 -38 23 -56 43 -28 32 -36 36 -95 40 -45 3 -72 11 -93
27 -38 28 -292 152 -325 158 -14 3 -38 10 -55 15 -91 31 -199 63 -265 77 -41
9 -103 23 -137 31 -34 8 -75 14 -90 14 -15 0 -41 9 -58 20 -25 16 -41 19 -95
14 -39 -4 -112 0 -182 10 -95 14 -189 16 -487 14 -232 -1 -394 -7 -437 -14z
m841 -29 c61 -8 125 -18 143 -21 32 -6 32 -7 15 -26 -31 -34 -50 -39 -206 -48
-326 -20 -577 -47 -812 -86 -147 -24 -159 -24 -163 6 -5 29 29 141 43 145 6 1
34 10 64 20 44 15 76 17 185 13 72 -3 165 -2 206 2 142 13 412 10 525 -5z
m500 -54 c28 -6 73 -14 100 -19 99 -19 255 -61 269 -74 6 -4 23 -8 38 -8 15 0
28 -4 28 -9 0 -5 14 -13 32 -16 17 -4 65 -23 105 -41 40 -19 78 -34 83 -34 6
0 34 -17 63 -38 29 -22 67 -47 85 -56 18 -9 41 -24 52 -33 18 -16 18 -17 -1
-54 -10 -21 -23 -40 -28 -43 -5 -4 -33 6 -63 20 -205 100 -345 160 -423 179
-27 7 -90 25 -140 40 -188 57 -251 75 -270 75 -11 0 -29 6 -40 14 -11 7 -38
16 -59 19 -51 8 -58 22 -33 65 l20 34 66 -6 c36 -3 89 -10 116 -15z m-251 -3
c-15 -27 -38 -48 -51 -48 -21 0 -15 27 9 44 27 19 52 21 42 4z m-1293 -39 c-2
-8 -4 -35 -6 -62 -1 -26 -4 -48 -6 -50 -59 -34 -75 -27 -60 29 14 52 49 107
64 101 7 -2 10 -11 8 -18z m3588 -1317 c13 -20 42 -62 63 -94 21 -31 38 -59
38 -62 0 -4 18 -32 39 -64 22 -32 45 -69 50 -82 6 -14 15 -32 20 -40 24 -37
130 -259 139 -290 13 -44 54 -150 81 -214 34 -79 71 -249 78 -358 8 -131 -10
-130 -48 3 -15 52 -38 123 -52 159 -39 99 -103 270 -120 320 -24 70 -46 118
-57 125 -5 3 -10 13 -10 20 0 27 -62 150 -119 235 -31 46 -60 92 -66 101 -5
10 -32 49 -59 88 -44 64 -48 74 -37 97 6 14 11 37 11 53 0 27 7 41 19 41 3 0
17 -17 30 -38z m-2879 -552 c0 -5 -2 -10 -4 -10 -3 0 -8 5 -11 10 -3 6 -1 10
4 10 6 0 11 -4 11 -10z m110 -35 c0 -19 -4 -37 -10 -40 -6 -4 -10 12 -10 40 0
28 4 44 10 40 6 -3 10 -21 10 -40z m375 29 c150 -11 295 -42 295 -62 0 -5 14
-24 30 -42 17 -19 33 -46 36 -60 13 -57 36 -114 54 -138 11 -14 20 -40 20 -59
0 -20 9 -46 20 -60 11 -14 20 -32 20 -40 0 -25 29 -71 50 -78 11 -3 20 -12 20
-19 0 -8 14 -16 32 -20 17 -3 28 -9 25 -13 -4 -3 -28 3 -54 13 -56 22 -232 26
-298 6 -73 -22 -143 -24 -287 -8 -219 24 -364 36 -460 37 -49 1 -88 4 -88 7 0
3 7 13 16 23 26 29 28 88 5 147 -12 29 -26 58 -31 65 -54 66 -76 87 -92 87
-22 0 -24 18 -3 26 19 7 104 -64 112 -93 3 -13 9 -23 14 -23 5 0 20 -26 35
-57 20 -45 25 -67 20 -100 -5 -40 -4 -43 18 -43 38 0 39 47 10 241 -4 22 2 62
15 106 11 38 20 87 18 108 -1 21 3 40 9 42 13 4 24 -41 24 -99 0 -51 22 -60
60 -23 16 16 27 32 23 38 -7 11 17 89 32 100 9 7 133 4 300 -9z m-567 -24
c-12 -36 10 -80 42 -80 28 0 34 18 15 40 -17 19 -17 20 0 26 23 9 45 -20 45
-57 0 -18 -6 -29 -17 -33 -10 -2 -28 -7 -39 -11 -27 -7 -84 38 -84 67 0 22 30
78 42 78 4 0 2 -14 -4 -30z m-240 -38 c11 -31 9 -36 -20 -68 -31 -34 -68 -46
-68 -21 0 8 14 26 31 41 24 22 29 33 25 52 -7 27 2 51 14 37 4 -4 12 -23 18
-41z m1342 -8 c30 -10 -14 -24 -56 -18 -42 6 -59 -3 -46 -22 11 -17 48 -34 74
-34 48 0 96 -20 101 -42 9 -34 0 -38 -43 -17 -21 10 -46 19 -54 19 -23 0 -120
95 -114 111 4 10 21 13 64 11 33 -2 66 -5 74 -8z m-2067 -92 c20 -18 23 -88 4
-113 -49 -64 -157 -32 -157 47 0 23 30 63 58 78 28 15 70 10 95 -12z m827 -3
c0 -5 -9 -9 -20 -9 -23 0 -73 -47 -64 -61 3 -6 11 -3 18 7 15 20 30 5 20 -20
-5 -13 -16 -15 -45 -12 -39 5 -89 -22 -89 -48 0 -7 -13 -33 -30 -59 -37 -59
-38 -93 -3 -129 31 -33 21 -41 -48 -36 -40 3 -44 6 -41 28 1 13 9 31 17 40 8
9 15 23 15 31 0 47 34 121 77 168 26 28 53 51 60 51 7 0 17 9 23 20 15 27 81
59 98 47 6 -5 12 -13 12 -18z m-1110 -49 c8 -15 7 -26 -6 -45 -27 -41 -84 -28
-84 20 0 29 19 45 52 45 17 0 31 -7 38 -20z m1126 -77 c-7 -7 -26 7 -26 19 0
6 6 6 15 -2 9 -7 13 -15 11 -17z m-26 -47 c0 -3 -4 -8 -10 -11 -5 -3 -10 -1
-10 4 0 6 5 11 10 11 6 0 10 -2 10 -4z m-82 -18 c-6 -18 -28 -21 -28 -4 0 9 7
16 16 16 9 0 14 -5 12 -12z m145 -2 c6 -14 0 -26 -14 -26 -3 0 -9 9 -12 20 -6
23 18 28 26 6z m-93 -10 c0 -3 -4 -8 -10 -11 -5 -3 -10 -1 -10 4 0 6 5 11 10
11 6 0 10 -2 10 -4z m38 -35 c18 -11 -12 -35 -34 -27 -13 5 -14 9 -4 21 14 17
20 18 38 6z m-110 -19 c7 -5 10 -16 6 -25 -4 -11 0 -19 10 -23 9 -3 16 -12 16
-20 0 -19 -45 -46 -70 -42 -32 5 -28 21 8 30 38 10 39 14 11 44 -28 30 -14 56
19 36z m216 -21 c24 -27 13 -44 -19 -29 -31 14 -57 -5 -53 -38 2 -13 0 -23 -4
-24 -29 -1 -36 2 -40 18 -8 30 8 58 44 75 43 21 51 21 72 -2z m2801 -98 c28
-8 57 -17 65 -20 12 -3 12 -5 0 -13 -11 -7 -11 -11 -1 -23 7 -9 11 -21 10 -29
-4 -30 2 -38 31 -38 26 0 30 4 30 27 0 20 3 24 11 16 8 -8 8 -17 0 -31 -6 -11
-11 -23 -11 -26 0 -10 79 -6 85 4 3 6 -5 10 -18 10 -14 0 -27 7 -31 15 -6 17
9 21 19 4 4 -6 13 -8 20 -5 7 2 23 -6 34 -18 l22 -23 -23 -8 c-23 -7 -23 -7 5
-18 15 -6 27 -14 27 -19 0 -4 5 -8 10 -8 6 0 10 7 10 15 0 19 5 19 51 -2 21
-10 39 -24 39 -30 0 -7 5 -13 11 -13 6 0 9 -5 7 -12 -3 -7 -22 -13 -42 -14
-29 -2 -36 0 -27 9 19 19 13 47 -10 47 -18 0 -20 -4 -15 -27 4 -16 14 -34 23
-40 15 -12 15 -13 -4 -13 -21 0 -38 24 -27 41 12 20 -18 8 -40 -16 -24 -26
-46 -33 -46 -15 0 6 -18 10 -40 10 -27 0 -40 -4 -40 -14 0 -7 -11 -21 -24 -30
-23 -14 -26 -14 -40 0 -9 9 -20 24 -26 33 -5 10 -22 21 -38 24 -45 9 -62 31
-52 67 6 21 3 43 -9 77 -10 26 -21 67 -24 91 -5 38 -3 43 11 37 10 -4 40 -14
67 -22z m-574 -55 c24 -30 25 -90 2 -109 -10 -8 -31 -21 -46 -29 -25 -12 -31
-12 -60 5 -18 10 -35 23 -39 29 -15 21 -8 74 13 100 28 35 101 38 130 4z
m-1072 -12 c24 -3 50 -7 59 -11 8 -3 23 2 32 10 16 15 18 14 22 -10 3 -14 3
-27 -1 -29 -3 -2 -40 2 -81 9 -41 8 -103 14 -137 14 -34 1 -70 4 -80 8 -16 6
-15 8 7 14 23 7 67 6 179 -5z m-834 -33 c17 -3 68 -9 115 -13 47 -4 153 -20
235 -35 83 -15 182 -29 220 -32 39 -2 79 -8 90 -13 44 -19 90 -30 121 -30 39
0 74 -29 74 -61 0 -11 4 -28 9 -37 5 -9 12 -53 15 -97 14 -187 18 -215 35
-225 13 -7 14 -11 3 -22 -10 -9 -17 -10 -31 -1 -14 9 -42 8 -117 -3 -54 -9
-119 -17 -144 -20 -67 -6 -92 -10 -123 -19 -15 -4 -33 -3 -40 3 -6 5 -55 13
-107 17 -52 4 -103 11 -114 17 -13 7 -21 7 -26 -2 -6 -10 -23 -11 -62 -6 -57
8 -187 16 -308 19 -69 2 -75 4 -71 22 2 11 5 63 8 116 l5 95 -46 48 c-37 37
-46 54 -46 82 0 28 6 38 33 54 17 11 41 20 51 20 10 0 25 8 33 18 15 19 43 80
42 90 -5 33 34 37 146 15z m1673 -15 c29 -29 -10 -68 -48 -48 -19 10 -27 40
-13 53 11 11 48 8 61 -5z m1576 -4 c13 -34 18 -329 6 -359 l-11 -30 -19 24
c-10 14 -21 50 -24 80 -5 50 -2 92 20 254 7 48 17 60 28 31z m-3602 -15 c32
-23 33 -30 12 -183 -3 -27 -2 -51 3 -55 15 -10 44 -61 49 -84 8 -44 7 -84 -5
-140 -13 -59 -27 -74 -57 -63 -15 6 -15 8 -1 24 22 25 31 87 18 121 -7 15 -30
41 -53 57 -22 16 -47 37 -56 47 -22 23 -54 22 -82 -3 -13 -11 -24 -20 -26 -20
-1 0 -23 9 -49 20 -64 28 -84 25 -127 -15 -20 -19 -41 -35 -47 -35 -6 0 -11
-4 -11 -9 0 -5 -7 -17 -16 -25 -8 -9 -18 -31 -21 -50 -4 -28 -1 -38 21 -57 22
-19 35 -49 22 -49 -17 0 -75 32 -79 45 -24 61 -13 165 22 207 64 78 73 99 51
113 -15 9 -12 25 5 25 18 0 35 -31 35 -62 0 -13 -14 -40 -31 -61 -37 -45 -23
-48 38 -7 24 17 51 30 59 30 7 0 14 5 14 10 0 6 11 16 25 22 29 13 32 33 8 47
-32 17 9 23 48 7 30 -13 36 -13 51 1 24 21 47 10 41 -19 -4 -19 4 -32 34 -56
21 -17 47 -41 59 -52 12 -11 28 -20 36 -20 18 0 17 32 -2 55 -18 22 -19 81 -2
133 8 23 11 54 8 67 -5 21 -12 25 -46 25 -22 0 -40 4 -40 8 0 29 52 29 92 1z
m941 4 c-7 -2 -21 -2 -30 0 -10 3 -4 5 12 5 17 0 24 -2 18 -5z m-1305 -9 c62
-12 45 -94 -20 -94 -20 0 -28 5 -29 18 0 11 -4 7 -11 -10 -8 -24 -13 -26 -29
-17 -11 5 -24 7 -29 4 -6 -3 -10 -1 -10 4 0 6 4 11 8 11 4 0 12 15 17 32 6 19
21 38 35 45 29 15 29 15 68 7z m1510 -10 c27 -8 29 -20 4 -26 -24 -7 -65 9
-57 22 7 11 20 12 53 4z m1537 -74 c20 -11 47 -20 61 -20 14 0 33 -4 43 -9 25
-14 101 -91 101 -104 0 -5 8 -3 18 6 17 16 20 15 39 -7 12 -13 24 -38 28 -56
6 -29 5 -31 -13 -26 -15 5 -21 1 -26 -19 -7 -27 -1 -45 15 -45 5 0 9 11 9 25
0 18 4 23 16 18 20 -8 64 16 65 36 1 12 2 12 6 -2 3 -12 10 -16 20 -13 38 15
63 18 63 7 0 -6 9 -11 20 -11 14 0 20 -7 20 -22 0 -13 9 -43 20 -67 21 -46 19
-60 -8 -62 -11 -1 -8 -4 8 -9 18 -6 20 -8 7 -9 -13 -1 -17 -6 -12 -20 5 -18 1
-20 -55 -19 -64 1 -82 10 -53 28 15 9 12 10 -14 5 -21 -4 -33 -3 -33 4 0 6 -7
11 -15 11 -11 0 -15 11 -15 41 0 33 -3 40 -17 37 -13 -3 -18 -13 -17 -36 2
-27 -2 -32 -21 -32 -12 0 -28 7 -35 15 -7 8 -24 15 -39 15 -14 0 -34 7 -43 14
-24 18 -34 72 -17 92 11 14 10 18 -6 31 -22 15 -65 10 -77 -10 -5 -8 -8 -5 -8
7 0 16 -5 18 -35 13 -37 -6 -45 3 -20 23 8 7 15 20 15 28 0 13 3 12 14 -3 12
-17 17 -17 45 -6 19 9 34 23 38 39 5 20 -1 30 -32 56 -20 17 -55 36 -78 41
-22 6 -42 16 -45 23 -6 18 23 15 63 -8z m-3338 -26 c-9 -10 -108 -24 -119 -18
-21 13 8 24 64 24 34 0 58 -3 55 -6z m165 -48 c-2 -11 -11 -28 -18 -36 -7 -8
-26 -42 -42 -75 -31 -61 -33 -92 -17 -190 6 -38 -3 -51 -37 -57 -53 -10 -57
25 -18 128 5 12 11 42 15 67 4 26 13 52 21 58 8 6 14 18 14 25 0 7 9 28 19 45
11 17 17 38 14 45 -3 8 4 17 18 23 28 10 39 -1 31 -33z m3789 2 c1 -7 1 -17 0
-22 -1 -5 5 -6 13 -3 15 6 30 -18 20 -34 -9 -15 -44 -10 -44 6 0 9 -9 15 -25
15 -44 0 -19 44 28 49 4 1 8 -5 8 -11z m-704 -145 c5 -61 7 -117 5 -122 -5
-14 -39 -14 -47 -1 -11 18 -7 208 5 231 20 36 29 9 37 -108z m93 113 c0 -12
-6 -13 -30 -5 -16 6 -30 13 -30 15 0 2 14 4 30 4 20 0 30 -5 30 -14z m-159
-133 c-2 -132 -3 -133 -119 -133 -75 0 -84 2 -89 20 -6 24 -25 27 -21 3 2 -12
-7 -19 -32 -24 -53 -11 -585 -14 -583 -3 1 5 39 16 85 25 112 22 212 47 278
69 30 10 79 23 108 29 30 6 63 18 75 26 12 8 31 15 42 15 28 0 132 34 180 58
45 23 68 31 74 26 2 -2 3 -52 2 -111z m-2603 -50 c26 -29 23 -74 -7 -106 -30
-31 -287 -33 -298 -2 -2 6 11 25 27 44 34 37 32 46 -11 46 -21 0 -29 -5 -29
-17 0 -10 -7 -18 -15 -18 -19 0 -19 5 1 40 14 23 23 27 53 26 49 -3 61 -12 61
-46 0 -20 -7 -33 -21 -41 -33 -17 -5 -29 71 -29 89 0 144 20 148 54 3 21 -3
28 -33 41 -21 8 -41 12 -46 9 -15 -9 -10 -44 6 -44 17 0 20 -16 5 -25 -15 -9
-50 18 -50 39 0 11 10 30 22 43 18 19 28 22 57 17 20 -3 46 -17 59 -31z m1397
-143 c-5 -8 -11 -8 -17 -2 -6 6 -7 16 -3 22 5 8 11 8 17 2 6 -6 7 -16 3 -22z
m1525 -10 c0 -5 8 -10 17 -10 24 0 77 -39 90 -66 11 -23 10 -24 -28 -24 -21 0
-39 5 -39 10 0 6 -7 10 -15 10 -20 0 -19 19 0 26 24 10 -2 34 -36 34 -19 0
-29 5 -29 15 0 8 9 15 20 15 11 0 20 -4 20 -10z m-1520 -20 c0 -5 -5 -10 -11
-10 -5 0 -7 5 -4 10 3 6 8 10 11 10 2 0 4 -4 4 -10z m284 -16 c3 -8 2 -12 -4
-9 -6 3 -10 10 -10 16 0 14 7 11 14 -7z m-389 -7 c26 -20 6 -27 -54 -20 -52 6
-57 17 -11 26 43 8 46 7 65 -6z m-975 -7 c173 -6 371 -15 440 -20 271 -23 397
-50 229 -50 -122 0 -358 -31 -384 -50 -5 -4 -28 -11 -50 -14 -23 -4 -110 -27
-195 -52 -85 -24 -185 -53 -222 -63 -78 -22 -154 -67 -162 -98 -3 -11 -8 -28
-11 -35 -8 -20 27 -34 144 -58 85 -17 111 -19 173 -10 40 6 105 15 144 20 64
8 243 61 319 94 33 15 87 32 215 71 73 23 110 27 271 32 177 6 187 5 197 -13
10 -19 32 -431 30 -551 -1 -82 -12 -90 -69 -52 -70 48 -206 114 -309 150 -93
33 -99 34 -250 33 -159 0 -173 -3 -310 -55 -79 -31 -200 -112 -283 -191 -72
-68 -91 -92 -102 -130 l-14 -48 25 0 c15 0 23 -4 19 -10 -16 -26 -21 -67 -12
-90 6 -14 11 -38 12 -55 0 -49 16 -41 56 31 35 65 110 154 130 154 10 0 13
-16 9 -45 -11 -68 -1 -236 19 -307 11 -43 21 -87 21 -97 0 -18 5 -19 50 -14
57 7 90 -10 115 -56 12 -25 12 -30 1 -34 -8 -3 -16 -16 -18 -29 -2 -15 -11
-24 -25 -26 -27 -4 -30 -28 -6 -54 28 -31 46 -23 40 17 -3 19 -2 37 2 39 13 8
104 -28 109 -43 4 -13 -18 -12 -61 5 -9 3 -16 -2 -19 -14 -4 -14 2 -23 21 -32
l26 -13 -25 -7 -25 -7 28 -12 c16 -6 34 -11 42 -11 7 0 15 -4 17 -10 12 -37
297 -35 381 2 46 21 60 44 33 54 -34 13 -26 145 10 171 10 7 43 13 75 13 47 0
59 -4 73 -22 l15 -23 22 25 c23 26 48 79 94 198 31 79 45 91 45 38 0 -19 4
-37 9 -41 15 -9 141 214 141 249 0 7 7 19 15 26 23 19 18 55 -16 121 -23 43
-29 66 -24 86 6 25 30 202 55 403 6 47 14 123 18 170 l7 85 55 0 54 0 10 -40
c6 -23 10 -251 10 -545 0 -464 -1 -520 -22 -685 -41 -327 -112 -627 -152 -640
-14 -4 -105 -15 -290 -35 -47 -6 -117 -10 -157 -10 -39 0 -74 -4 -78 -9 -10
-17 254 0 409 25 153 25 186 35 186 58 0 8 7 19 15 26 8 6 28 49 45 93 17 45
35 91 39 102 13 29 88 265 95 298 4 15 11 27 16 27 11 0 15 -149 12 -353 -3
-139 2 -145 78 -98 37 23 52 28 56 18 10 -28 -4 -274 -20 -327 -9 -30 -16 -70
-16 -89 0 -19 -4 -48 -9 -65 -5 -17 -15 -51 -21 -74 -19 -72 -23 -40 -6 43 9
43 16 107 16 144 1 36 5 86 10 111 4 25 7 47 5 48 -10 10 -24 -43 -29 -108 -4
-41 -13 -127 -22 -190 -11 -81 -13 -115 -5 -118 16 -5 14 -74 -3 -98 -8 -11
-17 -37 -21 -57 -8 -40 -59 -127 -74 -127 -13 0 -23 -40 -62 -235 -18 -91 -38
-168 -47 -178 -14 -16 -130 -77 -147 -77 -3 0 -3 5 1 12 4 6 3 8 -3 5 -6 -4
-13 -26 -17 -49 -6 -37 -19 -54 -91 -125 -54 -52 -75 -78 -58 -70 15 6 35 18
43 25 8 7 40 32 70 55 52 41 55 46 56 88 1 42 2 44 30 43 16 -1 32 -2 35 -3
15 -2 40 -85 34 -115 -9 -45 -44 -163 -65 -221 -10 -27 -25 -75 -34 -105 -9
-30 -25 -73 -35 -95 -10 -22 -24 -53 -30 -69 -11 -26 -13 -27 -29 -14 -9 8
-31 20 -48 27 -18 7 -46 30 -63 52 -22 27 -57 51 -115 78 -91 43 -107 43 -164
4 -32 -21 -61 -31 -137 -47 -26 -6 48 39 168 101 16 9 26 17 24 19 -2 3 -60
-21 -128 -51 -68 -31 -137 -62 -154 -70 -16 -7 -64 -29 -106 -49 -42 -20 -80
-36 -85 -36 -5 0 -51 -21 -104 -46 -269 -130 -470 -224 -479 -224 -5 0 -15 -7
-22 -17 -13 -15 -11 -16 11 -10 14 3 45 9 70 13 25 4 56 15 70 24 14 10 50 29
80 43 30 14 84 38 120 55 36 16 119 55 185 87 66 32 144 69 173 83 29 13 55
29 58 33 3 5 10 7 15 4 11 -7 -19 -55 -35 -55 -6 0 -27 -8 -46 -19 -19 -10
-51 -22 -70 -26 -28 -5 -166 -69 -248 -115 -9 -5 -39 -19 -67 -31 -27 -12 -59
-28 -70 -36 -19 -14 -19 -15 8 -10 46 7 38 -1 -78 -87 -44 -33 -87 -67 -95
-75 -8 -9 -37 -33 -63 -55 -26 -21 -86 -74 -133 -117 -47 -43 -88 -79 -92 -79
-4 -1 -56 -7 -117 -16 -402 -55 -516 -66 -532 -51 -15 14 -2 249 22 415 8 56
15 116 15 133 l0 30 43 -24 c47 -26 97 -42 97 -30 0 8 -153 83 -169 83 -5 0
-14 7 -21 15 -7 8 -33 26 -59 38 -25 13 -55 29 -66 35 -20 11 -236 113 -290
137 -98 44 -149 64 -220 89 -44 15 -116 42 -160 58 -133 50 -148 55 -202 71
-29 9 -53 12 -53 7 0 -9 78 -55 113 -66 12 -3 40 -15 62 -25 22 -9 72 -29 110
-42 39 -14 90 -35 115 -47 l45 -21 -61 6 c-64 7 -239 17 -335 19 -50 1 -62 -3
-125 -45 -38 -25 -113 -63 -167 -84 -67 -27 -115 -53 -152 -84 -29 -26 -115
-89 -190 -141 -298 -208 -348 -249 -374 -309 -13 -32 -36 -58 -73 -86 -29 -22
-92 -72 -140 -112 -48 -40 -98 -78 -110 -84 -13 -7 -61 -44 -108 -83 -179
-150 -236 -175 -263 -114 -25 55 -26 65 -16 103 7 24 18 39 36 46 14 5 71 32
127 59 91 43 110 57 178 132 90 99 105 118 141 180 39 68 65 160 73 258 6 79
9 90 52 155 62 95 123 152 168 161 20 4 74 1 120 -6 51 -8 113 -10 162 -6 71
6 81 4 97 -14 10 -11 31 -20 47 -20 33 0 37 16 6 26 -71 22 -58 115 18 138 18
5 25 -1 43 -34 26 -50 26 -66 2 -87 -11 -9 -17 -21 -14 -26 8 -14 53 34 53 58
0 12 12 32 26 46 14 13 38 49 51 79 14 30 29 57 33 60 13 9 58 116 65 154 4
20 11 36 16 36 14 0 11 18 -8 39 -12 15 -21 17 -34 11 -29 -16 -37 9 -41 124
-4 101 -6 111 -29 130 -21 18 -69 103 -69 122 0 4 -7 12 -14 18 -8 6 -18 23
-22 39 -5 21 -3 27 10 27 9 0 16 5 16 10 0 6 -4 10 -9 10 -5 0 -16 18 -25 40
-9 22 -20 40 -26 40 -5 0 -10 8 -10 18 0 9 -23 50 -50 90 -35 52 -50 83 -50
107 0 18 -5 55 -11 82 -8 35 -9 126 -4 304 7 245 8 256 28 265 36 16 38 57 8
162 -44 151 -49 175 -67 367 -16 178 -16 182 5 322 12 79 28 161 36 184 8 23
15 63 15 90 0 51 19 114 27 90 3 -7 0 -68 -6 -135 -14 -145 -2 -216 56 -333
34 -70 37 -73 70 -73 35 0 35 1 28 33 -19 83 -22 133 -10 157 7 14 20 54 29
90 9 36 21 69 26 74 18 18 24 -5 11 -37 -20 -48 -31 -173 -21 -241 15 -104 61
-281 78 -298 6 -6 28 -2 62 11 37 14 58 17 71 11 24 -13 59 -59 59 -78 0 -20
-59 -72 -81 -72 -21 0 -30 -12 -21 -26 13 -19 123 -85 153 -91 22 -4 29 -2 29
10 0 8 -5 17 -12 19 -6 2 -9 9 -5 15 6 9 148 30 185 26 6 0 12 3 12 8 0 5 10
9 21 9 19 0 20 -2 8 -16 -11 -14 -11 -18 4 -29 32 -23 11 -64 -26 -49 -8 3
-14 -2 -14 -10 0 -19 58 -10 70 11 4 7 21 13 38 13 46 0 158 68 145 89 -4 5
-19 12 -35 16 -16 3 -32 13 -35 21 -9 23 -26 16 -26 -10 0 -30 -15 -42 -61
-49 l-37 -5 0 39 c-1 29 5 43 21 54 24 17 57 20 57 5 0 -5 7 -10 15 -10 10 0
15 11 15 35 0 24 9 44 29 67 27 30 34 33 82 31 29 -1 57 -7 63 -13 35 -35 55
18 63 165 4 94 2 122 -17 190 -32 116 -41 157 -37 161 6 6 64 -25 77 -41 7 -8
18 -15 26 -15 7 0 30 -11 50 -25 21 -14 42 -24 48 -22 16 6 10 84 -10 137 -10
25 -33 70 -52 100 -21 32 -30 56 -23 58 13 4 15 32 2 32 -5 0 -11 -5 -13 -12
-2 -6 -10 -8 -17 -4 -8 6 -9 11 -2 20 15 17 -8 36 -89 74 -103 48 -256 84
-415 97 -38 4 -74 10 -78 14 -21 21 65 129 123 154 8 4 22 12 31 18 13 10 44
3 150 -29 109 -34 149 -42 212 -42 99 0 167 26 197 77 42 71 22 102 -92 138
-139 45 -212 72 -215 81 -4 12 124 156 151 170 37 20 228 53 316 54 125 3 117
5 125 -42 11 -73 26 -121 34 -112 4 5 18 41 31 81 l22 72 52 5 c28 3 65 8 81
9 68 8 611 6 905 -3z m1093 -10 c4 -17 0 -20 -30 -20 -20 0 -32 4 -28 10 3 6
15 10 26 10 10 0 19 5 19 10 0 17 7 11 13 -10z m1487 10 c0 -5 -4 -10 -10 -10
-5 0 -10 5 -10 10 0 6 5 10 10 10 6 0 10 -4 10 -10z m495 -10 c3 -5 -3 -10
-14 -10 -12 0 -21 5 -21 10 0 6 6 10 14 10 8 0 18 -4 21 -10z m-599 -25 c27
-19 45 -24 65 -20 26 6 55 -15 32 -22 -14 -5 69 -88 85 -85 7 2 12 -8 12 -28
0 -16 5 -30 10 -30 6 0 10 -6 10 -14 0 -7 7 -19 15 -26 11 -9 15 -9 15 -1 0 7
5 9 10 6 6 -3 10 -17 10 -31 0 -20 4 -25 20 -22 21 3 33 -12 66 -81 9 -20 19
-30 22 -24 4 6 20 15 35 18 20 5 27 3 27 -8 0 -10 8 -13 25 -9 14 2 25 8 25
13 0 17 18 9 23 -11 3 -11 13 -20 23 -20 15 0 16 -8 11 -69 -3 -39 -13 -82
-21 -98 -8 -15 -15 -22 -16 -15 0 13 -30 17 -30 3 0 -4 11 -25 25 -46 15 -20
24 -39 22 -41 -7 -7 -37 7 -37 17 0 5 -7 9 -15 9 -8 0 -19 9 -25 19 -5 11 -20
21 -32 23 -13 2 -22 9 -21 15 1 6 -13 21 -32 34 -19 13 -33 29 -31 36 3 6 -2
17 -10 23 -8 7 -14 10 -14 6 0 -28 -18 -46 -38 -39 -23 8 -75 60 -64 65 4 1 5
30 2 63 l-6 60 -17 -57 c-10 -32 -19 -58 -22 -58 -2 0 -15 5 -29 11 -27 12
-25 39 3 39 12 1 11 5 -8 21 -16 13 -33 18 -47 15 -17 -5 -23 -1 -28 19 -4 14
0 37 7 53 7 15 12 35 10 45 -5 21 -31 23 -39 2 -8 -20 -108 -16 -112 5 -2 11
9 16 45 18 57 3 79 22 88 73 6 33 2 47 -19 79 -15 23 -41 46 -62 55 -19 8 -33
19 -29 25 9 15 21 12 61 -15z m-5925 -120 c-6 -44 -16 -161 -21 -260 -5 -99
-16 -261 -24 -360 -9 -99 -15 -261 -14 -360 1 -175 -5 -245 -22 -245 -42 0
-51 617 -13 882 9 62 16 128 15 147 0 18 7 54 17 80 10 25 26 82 36 126 9 44
19 87 22 95 13 33 15 -27 4 -105z m6269 105 c0 -8 -24 -20 -41 -20 -22 0 -7
25 16 26 14 1 25 -2 25 -6z m13 -68 c-3 -14 19 -16 33 -3 5 5 20 12 34 16 20
6 23 5 13 -6 -7 -7 -13 -21 -13 -31 0 -10 -4 -18 -10 -18 -5 0 -10 -11 -10
-25 0 -20 -5 -25 -25 -25 -14 0 -25 -4 -25 -10 0 -5 11 -12 25 -16 14 -3 25
-10 25 -15 0 -5 9 -9 19 -9 35 0 37 -65 4 -99 -12 -11 -16 -11 -28 5 -18 24
-19 61 -2 67 17 8 -12 27 -41 27 -12 0 -25 7 -28 15 -4 8 -17 15 -30 15 -13 0
-24 5 -24 10 0 6 12 10 26 10 24 0 26 3 22 40 -3 29 0 40 10 40 12 0 12 3 1
16 -12 14 -11 16 6 12 11 -2 19 -10 18 -16z m-393 -24 c0 -38 -12 -69 -24 -65
-6 2 -10 13 -8 23 10 68 9 64 22 64 6 0 10 -10 10 -22z m-1049 -8 c25 -14 25
-40 0 -40 -33 0 -71 19 -71 35 0 18 41 20 71 5z m1367 -33 c-2 -13 -13 -23
-33 -29 -38 -10 -51 3 -25 27 11 10 20 24 20 32 0 11 4 11 21 3 13 -7 19 -19
17 -33z m213 7 c12 -14 11 -16 -5 -13 -11 2 -21 10 -24 17 -5 17 13 15 29 -4z
m76 -186 c-3 -8 -6 -5 -6 6 -1 11 2 17 5 13 3 -3 4 -12 1 -19z m-492 -58 c3
-5 2 -10 -4 -10 -5 0 -13 5 -16 10 -3 6 -2 10 4 10 5 0 13 -4 16 -10z m-4925
-51 c-6 -24 -15 -53 -20 -64 -5 -11 -21 -59 -35 -107 -26 -84 -39 -108 -53
-94 -8 9 34 138 74 223 19 40 34 78 34 84 0 7 3 10 6 7 3 -3 0 -26 -6 -49z
m5872 -188 c17 -16 -69 -349 -98 -380 -8 -8 -15 -13 -16 -10 -2 2 -13 18 -25
36 -47 66 -48 195 -4 314 l21 56 58 -5 c31 -2 60 -7 64 -11z m-165 -447 c3 -9
0 -40 -6 -71 -12 -50 -17 -57 -67 -89 -30 -19 -61 -37 -69 -40 -23 -9 -18 19
8 46 12 14 30 41 39 62 20 45 67 108 80 108 5 0 11 -7 15 -16z m-57 -254 c0
-27 -4 -40 -13 -40 -14 0 -63 47 -56 54 3 2 44 18 67 25 1 1 2 -17 2 -39z
m-2854 -321 c10 -17 -13 -36 -27 -22 -12 12 -4 33 11 33 5 0 12 -5 16 -11z
m288 -17 c12 -24 12 -31 0 -55 -11 -21 -22 -27 -47 -27 -18 0 -37 4 -43 8 -19
12 -25 48 -13 76 10 21 19 26 50 26 32 0 41 -5 53 -28z m-2887 -40 c-12 -9
-26 -22 -30 -29 -9 -14 -47 -18 -47 -4 0 4 11 17 25 27 14 10 25 24 25 31 0
10 6 10 25 1 l25 -11 -23 -15z m200 12 c-3 -3 -12 -4 -19 -1 -8 3 -5 6 6 6 11
1 17 -2 13 -5z m2336 -11 c-7 -2 -21 -2 -30 0 -10 3 -4 5 12 5 17 0 24 -2 18
-5z m81 -18 c11 -8 16 -15 10 -16 -29 -2 -48 -9 -55 -21 -7 -10 -11 -10 -21 0
-6 6 -22 12 -35 12 -38 0 -26 15 20 27 59 14 60 14 81 -2z m-2324 -40 c0 -8
-4 -15 -10 -15 -5 0 -7 7 -4 15 4 8 8 15 10 15 2 0 4 -7 4 -15z m-1435 -351
c3 -32 15 -104 25 -159 42 -225 50 -272 52 -314 2 -41 5 -45 43 -61 37 -16 54
-37 68 -82 14 -44 -87 -70 -142 -37 -29 18 -33 24 -28 52 3 18 9 41 13 52 7
20 7 20 -14 1 -25 -21 -28 -61 -10 -101 11 -24 9 -28 -18 -50 -16 -13 -33 -21
-37 -18 -17 10 -2 624 19 773 5 36 8 41 14 24 5 -11 11 -47 15 -80z m411 -661
c-10 -10 -19 5 -10 18 6 11 8 11 12 0 2 -7 1 -15 -2 -18z m-111 7 c-3 -5 -10
-10 -16 -10 -5 0 -9 5 -9 10 0 6 7 10 16 10 8 0 12 -4 9 -10z m245 -10 c0 -5
-4 -10 -10 -10 -5 0 -10 5 -10 10 0 6 5 10 10 10 6 0 10 -4 10 -10z m-223 -42
c-3 -8 -6 -5 -6 6 -1 11 2 17 5 13 3 -3 4 -12 1 -19z m-282 -28 c3 -5 -1 -10
-10 -10 -9 0 -13 5 -10 10 3 6 8 10 10 10 2 0 7 -4 10 -10z m35 -30 c0 -5 -4
-10 -9 -10 -6 0 -13 5 -16 10 -3 6 1 10 9 10 9 0 16 -4 16 -10z m279 -76 c28
-36 28 -90 0 -105 -44 -23 -119 12 -119 56 0 35 37 75 70 75 19 0 36 -9 49
-26z m366 -4 c0 -7 -6 -15 -12 -17 -8 -3 -13 4 -13 17 0 13 5 20 13 18 6 -3
12 -11 12 -18z m4981 -28 c6 -4 14 -24 17 -45 5 -35 16 -59 71 -164 10 -18 28
-41 41 -51 13 -11 21 -22 18 -26 -30 -29 -122 50 -152 131 -23 64 -41 149 -33
158 7 7 25 6 38 -3z m-5176 -117 c0 -8 -4 -15 -10 -15 -5 0 -7 7 -4 15 4 8 8
15 10 15 2 0 4 -7 4 -15z m5430 -125 c0 -5 -2 -10 -4 -10 -3 0 -8 5 -11 10 -3
6 -1 10 4 10 6 0 11 -4 11 -10z m-6098 -74 c33 -28 96 -103 123 -147 6 -9 22
-35 38 -57 15 -23 27 -48 27 -56 0 -7 6 -19 14 -25 14 -12 56 -122 56 -148 0
-7 -5 -12 -12 -11 -13 3 -35 -48 -25 -58 9 -9 38 16 32 26 -3 5 -1 11 4 14 12
8 23 -30 24 -84 0 -30 -7 -57 -22 -82 -40 -66 -63 -46 -88 75 -8 39 -21 80
-29 93 -18 27 -15 65 5 72 8 3 11 0 7 -6 -9 -15 10 -25 33 -17 17 5 18 10 9
36 -7 22 -14 27 -21 20 -19 -19 -65 -13 -81 11 -9 12 -16 29 -16 38 0 8 -24
47 -52 85 -29 39 -59 83 -67 98 -8 15 -18 27 -22 27 -12 0 -129 116 -129 128
0 20 50 14 51 -5 0 -10 13 -28 30 -41 l29 -24 0 30 c0 16 -7 35 -15 42 -8 7
-12 16 -9 21 7 12 60 -16 106 -55z m768 18 c0 -8 -4 -12 -10 -9 -5 3 -10 10
-10 16 0 5 5 9 10 9 6 0 10 -7 10 -16z m-30 -114 c27 -37 25 -72 -4 -99 -49
-46 -138 4 -130 74 2 16 7 31 12 33 5 1 17 8 27 15 26 20 73 8 95 -23z m59 19
c-16 -10 -23 -4 -14 10 3 6 11 8 17 5 6 -4 5 -9 -3 -15z m28 -61 c-3 -8 -6 -5
-6 6 -1 11 2 17 5 13 3 -3 4 -12 1 -19z m43 -73 c0 -8 -4 -15 -10 -15 -5 0
-10 7 -10 15 0 8 5 15 10 15 6 0 10 -7 10 -15z m-1461 -11 c18 -9 50 -33 72
-54 46 -44 50 -78 19 -167 -11 -32 -20 -64 -20 -73 0 -10 35 -27 110 -54 61
-21 113 -43 117 -50 13 -20 2 -150 -13 -167 -23 -26 -16 -35 39 -48 28 -7 60
-15 69 -17 36 -10 50 -159 26 -264 -10 -45 -17 -55 -53 -76 -51 -30 -60 -30
-90 -1 -51 47 -36 123 25 129 21 3 26 -2 28 -24 2 -16 8 -28 13 -28 5 0 9 40
9 90 0 104 -1 105 -98 116 -58 6 -62 5 -62 -14 0 -40 -66 -41 -108 -2 -15 14
-22 32 -22 59 0 52 25 73 90 74 l51 1 -3 75 -3 75 -64 14 c-48 10 -65 19 -69
34 -4 17 -9 15 -41 -20 -20 -21 -44 -42 -53 -45 -24 -8 -23 -24 2 -32 20 -6
25 -25 21 -77 -1 -16 3 -28 9 -28 7 0 10 7 7 15 -4 8 -2 17 3 20 5 3 12 -4 15
-15 5 -15 -1 -29 -19 -47 -14 -14 -28 -40 -32 -59 -7 -37 -68 -109 -84 -99 -5
3 -10 1 -10 -4 0 -6 7 -11 15 -11 9 0 15 -9 15 -25 0 -14 5 -25 10 -25 6 0 10
-6 10 -14 0 -8 14 -24 30 -37 43 -34 56 -87 35 -150 -9 -27 -21 -49 -26 -49
-6 0 -8 8 -4 19 9 28 -11 101 -34 124 -17 17 -22 18 -35 7 -9 -7 -16 -24 -16
-39 0 -43 -11 -71 -28 -71 -12 0 -13 3 -4 12 19 19 15 48 -8 48 -14 0 -20 -7
-20 -22 0 -21 -1 -21 -13 -3 -10 12 -22 16 -41 13 -22 -4 -32 2 -59 36 -17 22
-51 60 -74 83 -35 34 -43 49 -43 78 0 21 -7 42 -19 53 -10 9 -33 30 -50 46
-42 37 -64 82 -57 112 6 21 3 24 -22 24 -32 0 -68 34 -78 74 -3 14 -12 30 -20
37 -8 6 -11 16 -7 22 4 6 0 8 -11 4 -14 -5 -15 -3 -6 13 5 10 10 35 10 55 0
38 15 75 29 75 8 0 23 -37 26 -65 4 -32 27 -95 36 -101 20 -12 35 14 21 36
-13 22 -16 86 -4 94 16 9 92 -18 98 -36 6 -19 16 -23 27 -12 7 7 -22 66 -35
72 -3 2 -16 12 -29 23 -14 12 -37 19 -61 19 -25 0 -37 4 -33 11 4 5 19 8 33 5
15 -3 55 -7 89 -8 68 -2 84 -15 113 -88 18 -46 50 -82 69 -75 8 3 18 0 22 -7
6 -9 13 -8 28 6 14 13 28 16 50 11 17 -4 31 -10 31 -15 0 -4 7 -11 16 -14 14
-5 16 -1 10 34 -8 52 11 83 66 104 30 13 44 14 54 6 19 -16 44 49 46 119 2 58
9 47 -94 134 -15 12 -27 25 -27 30 -2 13 55 7 88 -9z m1501 -109 c0 -8 -4 -15
-10 -15 -5 0 -10 7 -10 15 0 8 5 15 10 15 6 0 10 -7 10 -15z m20 -80 c0 -8 -4
-15 -9 -15 -13 0 -22 16 -14 24 11 11 23 6 23 -9z m-1101 -36 c20 -37 8 -75
-29 -88 -49 -16 -69 2 -70 63 0 55 72 73 99 25z m139 -82 c20 -16 42 -63 42
-90 0 -48 -57 -80 -130 -74 -36 3 -62 63 -49 111 13 48 54 79 93 70 17 -3 37
-11 44 -17z m1807 -65 c-3 -3 -11 0 -18 7 -9 10 -8 11 6 5 10 -3 15 -9 12 -12z
m90 -32 c11 -5 36 -15 55 -23 19 -8 61 -27 94 -41 32 -14 64 -26 72 -26 7 0
16 -5 20 -11 11 -18 -75 0 -126 27 -25 13 -57 24 -73 24 -18 0 -40 12 -65 35
-36 34 -31 38 23 15z m-2321 -95 c-4 -8 -7 -15 -9 -15 -2 0 -5 7 -9 15 -3 9 0
15 9 15 9 0 12 -6 9 -15z m526 11 c0 -2 -7 -7 -16 -10 -8 -3 -12 -2 -9 4 6 10
25 14 25 6z m-1395 -83 c33 -42 62 -81 64 -87 4 -12 52 -78 62 -86 6 -5 36
-55 84 -140 14 -25 34 -61 46 -80 68 -117 133 -261 121 -270 -4 -3 -25 -12
-46 -19 -43 -15 -35 -19 -96 56 -5 7 -27 43 -47 80 -20 37 -52 89 -70 114 -18
26 -33 50 -33 55 0 5 -14 24 -30 42 -16 19 -32 43 -36 55 -4 12 -19 38 -34 57
-15 19 -38 55 -51 80 -13 25 -27 49 -32 55 -15 20 -57 86 -57 90 0 8 76 75 85
74 6 0 37 -34 70 -76z m1150 37 c3 -5 1 -10 -4 -10 -6 0 -11 5 -11 10 0 6 2
10 4 10 3 0 8 -4 11 -10z m245 -50 c0 -5 -4 -10 -10 -10 -5 0 -10 5 -10 10 0
6 5 10 10 10 6 0 10 -4 10 -10z m-1522 -81 c9 -16 37 -59 62 -94 25 -35 54
-79 65 -97 11 -18 27 -44 36 -58 44 -69 159 -275 159 -284 0 -5 7 -18 17 -28
13 -15 14 -18 2 -18 -8 0 -30 25 -49 55 -19 31 -56 88 -82 128 -27 39 -48 77
-48 83 0 6 -6 17 -14 23 -8 7 -45 61 -82 122 -93 149 -112 183 -107 192 9 15
24 6 41 -24z m6553 -33 c11 -13 50 -37 89 -52 38 -15 77 -35 86 -46 10 -10 25
-18 35 -18 20 0 24 -4 33 -42 8 -35 -8 -36 -66 -7 l-40 21 -29 -34 c-37 -42
-58 -80 -81 -143 -22 -64 -41 -198 -33 -238 l6 -32 -19 24 c-20 25 -32 70 -32
126 -1 75 84 263 125 279 22 8 18 30 -12 65 -37 42 -60 40 -80 -6 -8 -21 -21
-49 -27 -62 -6 -14 -41 -63 -78 -109 -37 -47 -65 -89 -62 -93 3 -5 14 -9 25
-9 11 0 31 -7 44 -16 29 -19 34 -64 10 -84 -8 -7 -15 -18 -15 -25 0 -18 -45
-45 -73 -45 -14 0 -30 7 -37 15 -11 13 -7 15 23 15 41 0 77 36 77 77 0 45
-108 53 -128 9 -14 -32 -119 -109 -137 -102 -35 13 -27 37 31 99 79 84 97 106
176 217 37 52 83 115 101 140 19 25 37 57 41 73 8 33 22 34 47 3z m-1061 -11
c19 -23 8 -48 -28 -57 -17 -5 -32 -15 -32 -23 0 -20 -37 -38 -66 -31 -57 15
-33 106 29 106 17 0 39 5 47 10 21 14 36 12 50 -5z m-4577 -38 c-3 -5 -10 -4
-15 1 -6 6 -7 16 -3 22 6 9 9 9 16 -1 4 -7 5 -17 2 -22z m577 -163 c0 -38 -15
-74 -30 -74 -6 0 -10 11 -10 25 0 34 -13 37 -87 22 -63 -14 -63 -13 -63 9 0
51 6 54 101 54 l89 0 0 -36z m5350 16 c0 -5 -4 -10 -10 -10 -5 0 -10 5 -10 10
0 6 5 10 10 10 6 0 10 -4 10 -10z m55 -10 c3 -5 2 -10 -4 -10 -5 0 -13 5 -16
10 -3 6 -2 10 4 10 5 0 13 -4 16 -10z m192 -19 c67 -12 73 -17 73 -47 0 -59
-40 -117 -127 -189 -47 -38 -104 -81 -127 -94 -23 -14 -43 -28 -46 -31 -9 -13
-45 -27 -85 -35 l-40 -7 25 19 c14 11 46 32 73 47 26 16 47 31 47 35 0 4 14
15 31 25 16 10 34 29 39 42 7 17 17 24 35 24 14 0 25 3 25 8 0 4 19 18 41 32
32 19 42 34 54 74 8 27 15 51 15 52 0 5 -73 22 -118 28 -54 7 -69 15 -51 28
15 9 47 7 136 -11z m-5022 -18 c4 -10 9 -81 10 -158 1 -77 5 -147 9 -155 8
-20 108 -50 163 -50 45 0 61 -13 44 -34 -6 -7 -8 -27 -5 -43 8 -38 -4 -42 -81
-32 -33 4 -85 11 -115 15 -49 6 -60 12 -102 57 l-47 49 0 126 c0 122 16 201
37 188 5 -3 12 -70 15 -150 3 -80 10 -153 16 -164 17 -31 113 -73 155 -68 20
2 38 0 41 -5 8 -12 65 -12 65 0 0 5 -37 13 -82 17 -83 6 -83 7 -130 55 -29 30
-48 58 -48 71 2 71 19 278 25 287 9 16 22 13 30 -6z m4662 -13 c10 -27 14 -29
47 -23 45 7 49 -14 8 -38 -28 -16 -29 -15 -60 17 -31 33 -39 54 -25 67 12 12
18 7 30 -23z m258 -30 c4 -6 -8 -10 -27 -10 -19 0 -43 -7 -54 -15 -23 -18 -34
-19 -34 -4 0 31 99 55 115 29z m-4379 -85 c-4 -19 -2 -36 4 -40 5 -3 10 -18
10 -32 0 -14 5 -43 12 -65 11 -37 10 -39 -24 -71 -19 -18 -48 -39 -64 -47 -16
-8 -39 -26 -51 -40 l-21 -25 -11 28 c-6 16 -11 35 -11 43 0 8 -9 32 -20 54
-36 71 -32 79 89 183 74 63 97 66 87 12z m-701 -94 c-4 -99 -3 -110 19 -152
44 -82 172 -135 341 -140 39 -1 70 2 70 7 0 5 -4 24 -9 42 -4 18 -5 36 -2 39
10 10 98 -40 106 -61 9 -25 49 -63 70 -68 8 -1 30 8 49 21 39 28 141 41 141
18 0 -14 -21 -44 -62 -88 -32 -34 -78 -40 -78 -10 0 24 -18 37 -32 23 -6 -6
-4 -25 6 -56 9 -26 16 -65 16 -87 0 -39 -1 -40 -34 -37 -24 1 -44 -6 -70 -26
-20 -15 -34 -32 -31 -37 4 -5 2 -9 -4 -9 -13 0 -51 54 -51 74 0 18 89 146 102
146 4 0 8 7 8 16 0 13 -6 11 -25 -10 -31 -33 -45 -33 -45 0 0 15 -10 43 -22
62 -18 30 -23 32 -28 17 -6 -16 -16 -18 -79 -16 -158 5 -297 49 -360 113 -23
24 -31 43 -37 86 -13 105 11 262 38 246 5 -3 6 -54 3 -113z m4865 66 c0 -28
59 -58 100 -52 40 6 75 -9 44 -19 -91 -27 -164 16 -164 97 0 18 2 19 10 7 5
-8 10 -23 10 -33z m155 23 c3 -5 -3 -10 -14 -10 -12 0 -21 5 -21 10 0 6 6 10
14 10 8 0 18 -4 21 -10z m-6200 -40 c9 0 25 -5 36 -10 15 -9 20 -7 25 7 15 47
17 48 24 23 16 -52 14 -53 -51 -47 -40 3 -72 13 -95 29 -46 31 -43 41 6 17 21
-10 46 -19 55 -19z m620 -7 c-20 -18 -30 -22 -33 -13 -5 15 25 40 47 40 11 -1
7 -9 -14 -27z m5383 -13 c31 -29 33 -107 4 -150 -10 -14 -23 -37 -31 -51 -12
-24 -18 -26 -55 -22 -55 6 -66 10 -66 24 0 8 12 10 35 6 101 -16 162 167 63
188 -21 5 -35 2 -49 -11 -21 -19 -24 -13 -9 17 15 27 79 26 108 -1z m-115 -69
c3 -16 13 -36 22 -45 21 -20 6 -21 -23 0 -14 10 -22 25 -22 45 0 37 16 38 23
0z m617 -71 c0 -5 -7 -10 -16 -10 -8 0 -12 5 -9 10 3 6 10 10 16 10 5 0 9 -4
9 -10z m-4850 -9 c0 -12 -20 -25 -27 -18 -7 7 6 27 18 27 5 0 9 -4 9 -9z
m3530 -28 c0 -10 -17 -29 -38 -43 -20 -14 -39 -27 -42 -30 -3 -3 -16 -10 -30
-16 -14 -6 -47 -28 -73 -48 -27 -21 -60 -42 -73 -48 -13 -6 -24 -15 -24 -20 0
-5 -10 -13 -22 -19 -42 -18 -71 -37 -79 -50 -4 -8 -11 -10 -15 -6 -9 9 25 47
43 47 7 0 13 4 13 9 0 9 132 111 144 111 4 0 17 9 29 21 12 11 38 29 57 39 19
10 50 30 69 44 41 31 41 31 41 9z m1168 -21 c36 -15 85 -46 111 -69 25 -24 48
-43 51 -43 3 0 12 18 22 40 26 63 98 97 149 70 33 -18 21 -30 -32 -30 -43 0
-55 -4 -77 -29 -54 -58 -53 -56 -46 -138 l7 -77 -38 -31 c-21 -18 -35 -37 -31
-43 3 -6 32 -14 64 -18 31 -3 76 -13 99 -21 24 -7 82 -22 130 -32 60 -12 88
-22 88 -32 0 -21 -51 -23 -130 -4 -38 10 -88 19 -111 20 -22 2 -58 10 -79 19
-20 9 -57 16 -81 16 -24 0 -69 7 -101 16 -32 9 -74 19 -95 23 -20 5 -58 19
-85 33 -26 14 -59 29 -72 33 -50 16 -161 105 -161 130 0 27 21 26 55 -3 18
-17 44 -33 57 -37 13 -4 32 -15 43 -25 11 -10 38 -23 60 -30 22 -6 58 -20 80
-30 54 -24 85 -33 85 -24 0 3 -13 22 -30 41 -16 18 -30 44 -30 56 1 71 128
119 165 63 30 -46 -7 -106 -56 -91 -27 9 -20 39 9 43 33 5 24 36 -11 40 -35 4
-67 -22 -67 -54 0 -24 79 -84 111 -84 43 0 68 22 74 64 9 57 -7 91 -74 155
-47 46 -69 60 -119 74 -33 9 -68 14 -76 11 -25 -10 -50 4 -38 19 17 20 107 10
180 -21z m-778 10 c0 -5 23 -19 50 -32 54 -25 73 -58 50 -85 -19 -22 -34 -19
-95 22 -56 38 -63 50 -45 84 11 19 40 27 40 11z m-3915 -22 c3 -5 -1 -10 -10
-10 -9 0 -13 5 -10 10 3 6 8 10 10 10 2 0 7 -4 10 -10z m4171 -71 c3 -6 -6
-23 -20 -38 -14 -15 -26 -35 -26 -44 0 -25 -28 -33 -47 -14 -15 14 -15 19 0
48 8 18 28 38 44 45 36 16 40 16 49 3z m864 -7 c0 -4 -16 -12 -35 -18 -36 -11
-44 -7 -23 14 13 13 58 17 58 4z m54 -73 c-17 -18 -38 -29 -55 -29 -40 0 -46
19 -9 26 17 4 43 20 58 35 21 23 28 26 30 13 2 -9 -9 -29 -24 -45z m-6684 42
c0 -24 -82 -51 -95 -32 -3 6 -5 11 -3 11 2 0 21 7 43 15 48 17 55 18 55 6z
m6147 3 c-3 -3 -12 -4 -19 -1 -8 3 -5 6 6 6 11 1 17 -2 13 -5z m-6512 -34 c22
-5 83 -14 135 -20 52 -6 129 -15 170 -21 104 -13 274 -13 300 1 29 16 57 4 56
-23 -1 -21 -5 -22 -106 -25 -58 -2 -161 4 -230 12 -69 9 -163 18 -210 21 -85
6 -220 39 -220 54 0 4 3 11 6 14 7 6 17 5 99 -13z m6502 -31 c-9 -6 -17 -16
-17 -24 0 -21 -17 -27 -32 -11 -8 8 -23 15 -33 17 -23 5 -32 29 -11 29 9 0 25
-5 35 -12 14 -9 23 -8 42 5 12 9 25 14 28 11 3 -3 -2 -10 -12 -15z m-6359 -58
c19 -11 3 -22 -101 -67 -74 -32 -90 -36 -97 -24 -12 19 -2 29 73 66 64 32 102
40 125 25z m885 -48 c73 -92 93 -108 195 -151 84 -34 110 -41 193 -45 94 -5
214 10 256 31 10 5 45 20 78 33 33 12 65 28 70 35 13 15 65 27 65 15 0 -35
-25 -60 -71 -71 -27 -7 -49 -16 -49 -20 0 -4 -12 -11 -27 -15 -31 -7 -53 -23
-53 -37 0 -13 61 1 81 18 8 8 22 14 30 14 8 0 23 7 33 15 22 16 62 20 70 6 14
-22 -54 -62 -181 -104 -18 -6 -33 -15 -33 -20 0 -15 78 0 145 28 70 29 105 32
105 9 0 -21 -83 -55 -210 -87 -187 -46 -223 -50 -369 -45 -119 4 -145 8 -176
27 -20 11 -42 21 -48 21 -27 0 -167 87 -167 103 0 3 -24 30 -54 60 -48 48
-103 134 -92 144 8 9 43 -23 103 -92 34 -40 78 -80 97 -89 19 -9 38 -21 41
-26 3 -6 13 -10 22 -10 8 0 -32 48 -91 107 -99 99 -127 143 -91 143 8 0 45
-32 82 -71 59 -61 123 -111 123 -94 0 6 -28 41 -60 75 -75 80 -100 112 -100
130 0 38 36 22 83 -37z m6082 12 c77 -17 130 -54 107 -77 -9 -9 -12 -9 -12 0
0 7 -23 23 -50 36 -38 18 -62 22 -95 19 -24 -3 -74 -2 -112 3 l-68 7 50 13
c68 16 98 16 180 -1z m-3950 -280 c0 -22 -31 -33 -47 -17 -17 17 -1 44 24 40
15 -2 23 -10 23 -23z m-127 -7 c32 -32 -1 -83 -51 -76 -28 4 -46 50 -27 72 15
19 61 21 78 4z m470 -124 c36 -18 35 -15 22 -48 -5 -14 -17 -26 -25 -26 -13 0
-15 7 -9 35 6 33 5 35 -20 35 -14 0 -26 5 -26 10 0 14 22 12 58 -6z m-857 -9
c4 -3 11 -20 14 -38 4 -17 12 -38 17 -44 8 -10 5 -13 -8 -13 -11 0 -33 -9 -50
-19 -21 -12 -36 -16 -45 -10 -11 7 -9 10 9 15 30 9 28 20 -8 32 -34 12 -50 53
-29 78 10 12 23 14 53 10 21 -4 43 -9 47 -11z m129 -201 c0 -8 -4 -12 -10 -9
-5 3 -10 13 -10 21 0 8 5 12 10 9 6 -3 10 -13 10 -21z m-40 -13 c0 -20 -13
-41 -25 -41 -8 0 -10 9 -7 25 4 23 32 37 32 16z m-116 -36 c3 -8 1 -15 -4 -15
-6 0 -10 7 -10 15 0 8 2 15 4 15 2 0 6 -7 10 -15z"/>
<path d="M8328 6393 c7 -3 16 -2 19 1 4 3 -2 6 -13 5 -11 0 -14 -3 -6 -6z"/>
<path d="M5033 6254 c-37 -16 -43 -38 -14 -54 54 -28 103 3 74 47 -17 26 -17
26 -60 7z"/>
<path d="M4856 6424 c-9 -23 -8 -24 19 -24 18 0 25 5 25 20 0 24 -35 28 -44 4z"/>
<path d="M8107 6184 c-6 -10 9 -42 16 -34 3 3 1 14 -3 24 -3 11 -9 15 -13 10z"/>
<path d="M8122 6108 c7 -19 38 -22 38 -4 0 10 -9 16 -21 16 -12 0 -19 -5 -17
-12z"/>
<path d="M8320 6085 c0 -8 -6 -15 -12 -15 -17 -1 31 -40 48 -40 8 0 14 6 14
13 0 6 3 22 6 35 6 19 3 22 -25 22 -21 0 -31 -5 -31 -15z"/>
<path d="M6080 5250 c0 -5 15 -10 33 -10 24 0 28 3 17 10 -20 13 -50 13 -50 0z"/>
<path d="M6230 5230 c20 -13 40 -13 40 0 0 6 -12 10 -27 10 -22 0 -25 -2 -13
-10z"/>
<path d="M6320 5211 c0 -9 24 -21 42 -21 6 0 6 6 -2 15 -14 16 -40 20 -40 6z"/>
<path d="M3407 4052 c5 -22 31 -32 78 -32 l30 1 -23 19 -22 19 22 4 c13 2 6 5
-17 5 -31 1 -37 -1 -25 -9 13 -9 12 -10 -2 -5 -10 3 -24 9 -32 12 -11 4 -13 0
-9 -14z"/>
<path d="M3548 4063 c7 -3 16 -2 19 1 4 3 -2 6 -13 5 -11 0 -14 -3 -6 -6z"/>
<path d="M2926 3780 c26 -26 114 -61 211 -85 59 -15 116 -29 126 -31 9 -3 17
-2 17 3 0 5 -37 17 -82 28 -46 10 -102 27 -125 36 -23 10 -58 21 -78 25 -19 3
-35 10 -35 14 0 4 -10 10 -21 13 -13 4 -18 2 -13 -3z"/>
<path d="M7166 3707 c-5 -15 -6 -31 -2 -34 11 -11 18 5 14 34 l-4 28 -8 -28z"/>
<path d="M2910 3665 c0 -8 65 -35 82 -35 7 1 2 7 -12 14 -33 18 -70 29 -70 21z"/>
<path d="M4463 3643 c9 -2 25 -2 35 0 9 3 1 5 -18 5 -19 0 -27 -2 -17 -5z"/>
<path d="M3700 3629 c0 -10 217 -16 440 -10 270 6 200 16 -126 17 -180 1 -314
-2 -314 -7z"/>
<path d="M3036 3611 c9 -9 137 -51 151 -51 18 1 -64 39 -84 40 -12 0 -25 5
-28 10 -3 6 -16 10 -28 10 -12 0 -17 -4 -11 -9z"/>
<path d="M2823 3510 c0 -36 2 -50 4 -32 2 17 2 47 0 65 -2 17 -4 3 -4 -33z"/>
<path d="M5963 3533 c9 -2 23 -2 30 0 6 3 -1 5 -18 5 -16 0 -22 -2 -12 -5z"/>
<path d="M3675 3520 c-12 -5 122 -9 323 -9 222 -1 342 3 342 9 0 12 -636 12
-665 0z"/>
<path d="M5653 3523 c9 -2 23 -2 30 0 6 3 -1 5 -18 5 -16 0 -22 -2 -12 -5z"/>
<path d="M5748 3523 c29 -2 74 -2 100 0 26 2 2 3 -53 3 -55 0 -76 -1 -47 -3z"/>
<path d="M7056 3099 c-9 -19 -29 -52 -46 -74 -42 -58 -36 -68 10 -15 38 42 68
105 57 117 -3 3 -13 -10 -21 -28z"/>
<path d="M3040 2720 c0 -5 5 -10 11 -10 5 0 7 5 4 10 -3 6 -8 10 -11 10 -2 0
-4 -4 -4 -10z"/>
<path d="M3205 2310 c3 -5 11 -10 16 -10 6 0 7 5 4 10 -3 6 -11 10 -16 10 -6
0 -7 -4 -4 -10z"/>
<path d="M4586 1631 c17 -18 129 -69 138 -64 4 3 -23 21 -60 39 -69 34 -97 42
-78 25z"/>
<path d="M4750 1552 c0 -25 126 -62 213 -62 72 0 153 16 163 32 4 6 -2 7 -15
3 -63 -20 -306 -1 -335 26 -13 11 -26 12 -26 1z"/>
<path d="M8085 5660 c-3 -5 -4 -19 0 -29 3 -11 1 -22 -5 -26 -15 -9 -2 -25 21
-25 15 0 19 7 19 34 0 35 -23 66 -35 46z"/>
<path d="M8136 5612 c-9 -15 12 -65 24 -57 14 9 13 28 -3 50 -9 11 -16 14 -21
7z"/>
<path d="M8091 5540 c-10 -6 -7 -12 13 -25 15 -10 29 -15 33 -11 3 3 1 6 -5 6
-7 0 -12 6 -12 14 0 20 -13 27 -29 16z"/>
<path d="M8273 5436 c4 -10 7 -27 7 -39 0 -15 3 -18 11 -10 14 14 8 55 -10 61
-10 3 -12 0 -8 -12z"/>
<path d="M8433 5373 c-15 -6 -18 -43 -3 -43 9 0 30 31 30 44 0 7 -10 7 -27 -1z"/>
<path d="M2250 3209 c0 -5 5 -7 10 -4 6 3 10 8 10 11 0 2 -4 4 -10 4 -5 0 -10
-5 -10 -11z"/>
<path d="M2047 2462 c-10 -11 -13 -23 -8 -31 13 -21 41 -5 41 24 0 29 -11 32
-33 7z"/>
<path d="M2110 2379 c-13 -23 2 -49 28 -49 13 0 12 3 -4 15 -15 11 -16 14 -3
15 8 0 20 -5 27 -12 17 -17 15 4 -4 30 -19 27 -30 28 -44 1z"/>
<path d="M2173 2285 c-17 -19 -16 -32 1 -38 19 -7 26 1 26 30 0 26 -9 29 -27
8z"/>
<path d="M2270 1970 c0 -9 28 -40 36 -40 14 0 0 39 -16 43 -11 3 -20 1 -20 -3z"/>
<path d="M1008 1868 c-27 -11 -48 -27 -48 -35 0 -12 3 -12 22 1 12 9 44 19 71
22 28 4 46 11 44 18 -6 18 -39 16 -89 -6z"/>
<path d="M1245 1870 c-4 -6 -15 -8 -25 -5 -32 10 -31 -13 2 -29 36 -19 34 -19
43 17 7 27 -7 38 -20 17z"/>
<path d="M1320 1830 c0 -11 7 -20 15 -20 17 0 18 2 9 24 -9 23 -24 20 -24 -4z"/>
<path d="M1369 1816 c6 -7 10 -24 9 -36 -2 -13 3 -25 10 -27 7 -3 12 5 12 20
0 36 -10 57 -27 57 -12 0 -13 -3 -4 -14z"/>
<path d="M1051 1790 c-19 -8 -21 -13 -11 -25 7 -8 23 -15 36 -15 14 0 24 -6
24 -14 0 -21 17 -28 38 -17 13 7 22 7 29 0 8 -8 17 -7 33 1 35 19 50 7 40 -30
-5 -18 -14 -38 -20 -45 -6 -7 -8 -24 -5 -37 6 -24 -17 -83 -28 -71 -9 8 -29
-48 -23 -64 7 -18 26 -17 26 2 0 8 5 15 11 15 5 0 7 -4 4 -10 -3 -5 0 -10 8
-10 16 0 27 29 27 71 0 15 7 30 16 33 9 4 13 13 10 24 -4 10 -2 40 3 66 8 45
7 50 -18 75 -14 15 -38 32 -53 38 -40 18 -119 24 -147 13z"/>
<path d="M1006 1751 c-4 -7 -5 -15 -2 -18 9 -9 19 4 14 18 -4 11 -6 11 -12 0z"/>
<path d="M1328 1669 c-4 -46 3 -56 26 -34 23 23 30 56 15 66 -27 17 -37 9 -41
-32z"/>
<path d="M1289 1461 c-7 -16 -26 -35 -42 -43 -35 -15 -37 -32 -6 -36 27 -5 79
52 79 86 0 31 -16 28 -31 -7z"/>
<path d="M3091 1064 c0 -11 3 -14 6 -6 3 7 2 16 -1 19 -3 4 -6 -2 -5 -13z"/>
<path d="M2275 460 c3 -5 15 -10 26 -10 10 0 19 5 19 10 0 6 -12 10 -26 10
-14 0 -23 -4 -19 -10z"/>
<path d="M2574 454 c-18 -14 -17 -15 21 -10 22 3 46 6 53 6 6 0 12 5 12 10 0
16 -64 12 -86 -6z"/>
<path d="M2211 411 c-11 -7 -3 -12 28 -21 53 -14 63 -7 20 14 -18 9 -33 16
-33 16 -1 0 -7 -4 -15 -9z"/>
<path d="M2595 390 c-38 -15 12 -24 58 -10 23 7 47 14 52 15 6 2 -12 3 -40 4
-27 0 -59 -4 -70 -9z"/>
<path d="M2340 369 c0 -11 82 -20 138 -14 98 9 83 21 -28 21 -61 0 -110 -3
-110 -7z"/>
<path d="M3612 268 c-20 -20 -14 -38 12 -38 30 0 42 16 26 35 -15 18 -22 19
-38 3z"/>
<path d="M3300 6820 c0 -5 5 -10 10 -10 6 0 10 5 10 10 0 6 -4 10 -10 10 -5 0
-10 -4 -10 -10z"/>
<path d="M3257 6741 c-24 -53 -21 -61 8 -26 25 31 31 50 17 59 -5 3 -16 -12
-25 -33z"/>
<path d="M1927 5553 c-4 -3 -7 -24 -7 -47 0 -37 1 -39 15 -20 24 32 17 93 -8
67z"/>
<path d="M1882 5379 c-7 -28 -12 -63 -12 -77 l0 -27 13 26 c18 33 28 101 18
117 -5 8 -12 -6 -19 -39z"/>
<path d="M8433 4279 c-80 -29 -173 -99 -221 -166 -42 -60 -21 -54 46 11 74 72
122 106 152 106 10 0 26 8 36 17 11 12 38 19 82 21 59 4 64 6 47 18 -25 19
-79 16 -142 -7z"/>
<path d="M8616 4248 c35 -56 54 -79 54 -63 0 25 -32 75 -48 75 -8 0 -10 -5 -6
-12z"/>
<path d="M8337 3860 c-3 -14 -2 -29 3 -34 16 -16 23 1 13 31 l-9 27 -7 -24z"/>
<path d="M8305 3790 c3 -5 8 -10 11 -10 2 0 4 5 4 10 0 6 -5 10 -11 10 -5 0
-7 -4 -4 -10z"/>
<path d="M8352 3770 c0 -14 2 -19 5 -12 2 6 2 18 0 25 -3 6 -5 1 -5 -13z"/>
<path d="M1959 3611 c-7 -20 11 -164 22 -175 5 -6 9 3 8 25 0 49 -24 167 -30
150z"/>
<path d="M2002 3295 c0 -22 3 -49 8 -60 7 -16 9 -13 8 15 0 19 -4 46 -8 60 -7
21 -8 19 -8 -15z"/>
<path d="M8065 3280 c-19 -8 -19 -9 3 -9 12 -1 22 4 22 9 0 6 -1 10 -2 9 -2 0
-12 -4 -23 -9z"/>
<path d="M2031 3155 c0 -11 4 -27 9 -35 9 -13 10 -13 9 0 0 8 -4 24 -9 35 l-9
20 0 -20z"/>
<path d="M8470 3130 c-8 -5 -11 -12 -7 -16 4 -4 13 -2 19 4 15 15 7 24 -12 12z"/>
<path d="M2050 3058 c0 -15 5 -30 10 -33 6 -3 10 -19 10 -35 0 -16 5 -32 10
-35 16 -10 12 26 -10 80 -15 40 -19 45 -20 23z"/>
<path d="M1065 2640 c-3 -5 1 -10 9 -10 9 0 16 5 16 10 0 6 -4 10 -9 10 -6 0
-13 -4 -16 -10z"/>
<path d="M927 2573 c-4 -3 -7 -11 -7 -17 0 -6 5 -5 12 2 6 6 9 14 7 17 -3 3
-9 2 -12 -2z"/>
<path d="M752 2433 c-6 -2 -10 -9 -7 -13 7 -11 35 -2 35 11 0 10 -8 10 -28 2z"/>
<path d="M660 2359 c0 -5 5 -7 10 -4 6 3 10 8 10 11 0 2 -4 4 -10 4 -5 0 -10
-5 -10 -11z"/>
<path d="M632 2210 c0 -14 2 -19 5 -12 2 6 2 18 0 25 -3 6 -5 1 -5 -13z"/>
<path d="M1667 663 c-3 -5 4 -29 16 -52 13 -26 23 -37 25 -28 4 20 -33 93 -41
80z"/>
<path d="M5840 513 c-37 -24 -80 -65 -80 -76 0 -13 51 22 73 50 10 13 25 23
32 23 8 0 17 5 20 10 9 15 -17 11 -45 -7z"/>
<path d="M5545 349 c-74 -32 -308 -115 -361 -128 -17 -5 -39 -13 -50 -19 -18
-11 -18 -11 4 -12 25 0 136 25 187 42 17 5 55 16 85 25 30 8 75 26 99 39 25
13 52 24 58 24 7 0 13 4 13 8 0 5 11 14 25 20 14 6 25 16 25 22 0 14 -5 13
-85 -21z"/>
<path d="M1882 238 c2 -6 10 -14 16 -16 7 -2 10 2 6 12 -7 18 -28 22 -22 4z"/>
<path d="M7664 226 c16 -9 31 -14 34 -11 8 8 0 13 -33 20 l-30 7 29 -16z"/>
<path d="M1920 177 c0 -8 7 -17 15 -21 8 -3 15 -2 15 3 0 5 -7 14 -15 21 -12
10 -15 10 -15 -3z"/>
<path d="M1062 125 c0 -16 4 -43 8 -60 l8 -30 0 30 c0 17 -4 44 -8 60 l-8 30
0 -30z"/>
<path d="M1967 103 c-4 -6 -1 -18 7 -26 8 -8 18 -26 22 -41 6 -27 21 -42 31
-32 3 3 0 13 -8 22 -7 9 -21 33 -29 52 -10 22 -19 32 -23 25z"/>
<path d="M3957 38 c-32 -32 -32 -33 -9 -36 13 -2 37 1 53 7 19 7 38 7 55 1 40
-16 104 -13 104 4 0 29 -55 56 -115 56 -51 0 -60 -3 -88 -32z"/>
<path d="M5453 63 c-7 -2 -13 -9 -13 -14 0 -15 36 -10 50 6 10 12 9 15 -6 14
-11 0 -25 -3 -31 -6z"/>
<path d="M5300 15 c-35 -14 -35 -14 29 -12 41 1 66 7 69 15 5 16 -52 15 -98
-3z"/>
</g>
</svg>
